<svg xmlns="http://www.w3.org/2000/svg" viewBox="0 0 50 52"><path d="M49.626 11.564a.809.809 0 0 1 .028.209v10.972a.8.8 0 0 1-.402.694l-9.209 5.302V39.25a.8.8 0 0 1-.401.694L20.42 51.01c-.044.025-.092.041-.14.058-.018.006-.035.017-.054.022a.805.805 0 0 1-.41 0c-.022-.006-.042-.018-.063-.026-.044-.016-.09-.03-.132-.054L.402 39.944A.8.8 0 0 1 0 39.25V6.334a.8.8 0 0 1 .028-.21c.006-.023.02-.044.028-.067a.794.794 0 0 1 .065-.128c.01-.014.025-.023.036-.037a.788.788 0 0 1 .13-.128l.037-.024 9.61-5.534a.81.81 0 0 1 .8 0l9.61 5.534.038.024c.048.04.091.085.13.128.01.014.025.023.035.037a.794.794 0 0 1 .066.128c.008.023.022.044.028.068a.8.8 0 0 1 .028.209v20.559l8.008-4.611v-10.51a.8.8 0 0 1 .029-.21c.005-.022.019-.043.027-.066a.794.794 0 0 1 .066-.129c.01-.014.024-.023.035-.037a.788.788 0 0 1 .13-.128l.038-.024 9.61-5.534a.81.81 0 0 1 .8 0l9.61 5.534c.013.008.025.02.037.024.049.04.092.085.13.128.011.014.026.023.036.037a.79.79 0 0 1 .066.128c.008.024.022.045.028.068zM48.016 22.1V12.728l-3.363 1.936-4.646 2.675v9.371l8.01-4.611zm-9.61 16.505V29.226l-4.57 2.61-12.85 7.344v9.443l17.42-10.018zM1.602 7.288v31.61L19.022 48.9v-9.443L9.822 34.14l-.037-.021-.038-.024c-.048-.04-.091-.083-.13-.128-.01-.013-.024-.023-.035-.037a.768.768 0 0 1-.064-.128c-.009-.024-.022-.045-.028-.068a.806.806 0 0 1-.028-.209V12.728l-4.646-2.675L1.602 7.288zm8.81-5.674L2.4 5.884l8.01 4.612 8.01-4.612-8.009-4.27zm4.245 28.187L19.303 27.1V7.288l-3.364 1.936-4.646 2.675v19.813l3.364-1.912zm15.343-17.14l-8.01 4.27 8.01 4.612 8.009-4.612-8.01-4.27zm-.4 10.235l-4.645-2.675-3.364-1.936v9.371l4.646 2.675 3.363 1.937V22.896zm-18.006 20.1l11.743-6.704 5.87-3.35-8-4.606-9.21 5.303-8.412 4.843 8.009 4.514z" fill="#FF2D20"/></svg>
